<svg width="313" height="212" viewBox="0 0 313 212" fill="none" xmlns="http://www.w3.org/2000/svg">
  <g filter="url(#filter0_i)">
    <path d="M92.464 107.536C95.104 107.896 96.988 108.664 98.116 109.84C99.244 110.992 99.808 112.384 99.808 114.016C99.808 115.384 99.46 116.596 98.764 117.652C98.068 118.708 97.072 119.536 95.776 120.136C94.48 120.712 92.944 121 91.168 121C90.52 121 89.968 120.988 89.512 120.964C87.976 120.916 86.464 120.892 84.976 120.892C83.008 120.892 81.52 120.928 80.512 121V120.28C81.376 120.232 82 120.136 82.384 119.992C82.792 119.848 83.068 119.572 83.212 119.164C83.356 118.756 83.428 118.096 83.428 117.184V99.328C83.428 98.416 83.356 97.756 83.212 97.348C83.068 96.94 82.792 96.664 82.384 96.52C82 96.376 81.376 96.28 80.512 96.232V95.512C81.52 95.584 82.984 95.62 84.904 95.62L88.792 95.584C89.248 95.56 89.764 95.548 90.34 95.548C92.788 95.548 94.66 96.064 95.956 97.096C97.276 98.128 97.936 99.496 97.936 101.2C97.936 102.592 97.492 103.84 96.604 104.944C95.74 106.048 94.36 106.888 92.464 107.464V107.536ZM89.44 96.232C88.696 96.232 88.132 96.316 87.748 96.484C87.388 96.652 87.136 96.952 86.992 97.384C86.848 97.816 86.776 98.464 86.776 99.328V107.464H89.188C91.156 107.464 92.524 106.936 93.292 105.88C94.084 104.8 94.48 103.372 94.48 101.596C94.48 99.796 94.084 98.452 93.292 97.564C92.5 96.676 91.216 96.232 89.44 96.232ZM89.476 120.172C93.964 120.172 96.208 118.072 96.208 113.872C96.208 111.976 95.692 110.536 94.66 109.552C93.652 108.568 92.032 108.076 89.8 108.076H86.776V117.184C86.776 118.048 86.848 118.684 86.992 119.092C87.136 119.5 87.388 119.788 87.748 119.956C88.132 120.1 88.708 120.172 89.476 120.172ZM107.881 117.652C107.881 118.636 108.085 119.32 108.493 119.704C108.901 120.064 109.609 120.244 110.617 120.244V121C108.409 120.904 106.957 120.856 106.261 120.856C105.565 120.856 104.113 120.904 101.905 121V120.244C102.913 120.244 103.621 120.064 104.029 119.704C104.437 119.32 104.641 118.636 104.641 117.652V97.096C104.641 95.992 104.437 95.188 104.029 94.684C103.621 94.18 102.913 93.928 101.905 93.928V93.172C102.649 93.244 103.393 93.28 104.137 93.28C105.649 93.28 106.897 93.112 107.881 92.776V117.652ZM117.282 121.252C115.77 121.252 114.642 120.88 113.898 120.136C113.178 119.368 112.818 118.312 112.818 116.968C112.818 115.888 113.106 115 113.682 114.304C114.282 113.608 114.978 113.056 115.77 112.648C116.586 112.24 117.654 111.808 118.974 111.352C120.318 110.896 121.314 110.476 121.962 110.092C122.61 109.708 122.934 109.192 122.934 108.544V106.312C122.934 104.92 122.634 103.972 122.034 103.468C121.458 102.94 120.642 102.676 119.586 102.676C117.906 102.676 116.718 103.108 116.022 103.972C116.502 104.092 116.898 104.344 117.21 104.728C117.546 105.112 117.714 105.592 117.714 106.168C117.714 106.768 117.522 107.248 117.138 107.608C116.754 107.944 116.262 108.112 115.662 108.112C114.99 108.112 114.486 107.908 114.15 107.5C113.814 107.068 113.646 106.552 113.646 105.952C113.646 105.376 113.778 104.896 114.042 104.512C114.33 104.128 114.75 103.744 115.302 103.36C115.878 102.952 116.61 102.616 117.498 102.352C118.386 102.088 119.358 101.956 120.414 101.956C122.286 101.956 123.702 102.4 124.662 103.288C125.262 103.84 125.658 104.512 125.85 105.304C126.066 106.072 126.174 107.092 126.174 108.364V118.372C126.174 118.972 126.258 119.404 126.426 119.668C126.594 119.932 126.882 120.064 127.29 120.064C127.578 120.064 127.842 120.004 128.082 119.884C128.346 119.74 128.622 119.548 128.91 119.308L129.306 119.92C128.682 120.4 128.142 120.748 127.686 120.964C127.254 121.156 126.702 121.252 126.03 121.252C124.878 121.252 124.074 120.964 123.618 120.388C123.162 119.812 122.934 119.032 122.934 118.048C122.214 119.248 121.386 120.088 120.45 120.568C119.514 121.024 118.458 121.252 117.282 121.252ZM118.866 119.812C120.45 119.812 121.806 118.9 122.934 117.076V110.02C122.718 110.356 122.418 110.632 122.034 110.848C121.65 111.064 121.062 111.352 120.27 111.712C119.358 112.096 118.614 112.468 118.038 112.828C117.486 113.164 117.006 113.632 116.598 114.232C116.19 114.832 115.986 115.6 115.986 116.536C115.986 117.616 116.25 118.432 116.778 118.984C117.306 119.536 118.002 119.812 118.866 119.812ZM139.388 101.956C140.996 101.956 142.388 102.34 143.564 103.108C144.692 103.852 145.256 104.776 145.256 105.88C145.256 106.504 145.076 106.996 144.716 107.356C144.356 107.716 143.9 107.896 143.348 107.896C142.796 107.896 142.328 107.74 141.944 107.428C141.56 107.092 141.368 106.648 141.368 106.096C141.368 105.592 141.512 105.172 141.8 104.836C142.088 104.476 142.448 104.236 142.88 104.116C142.64 103.684 142.208 103.324 141.584 103.036C140.984 102.748 140.336 102.604 139.64 102.604C138.752 102.604 137.924 102.892 137.156 103.468C136.388 104.02 135.752 104.956 135.248 106.276C134.744 107.572 134.492 109.288 134.492 111.424C134.492 114.4 134.972 116.572 135.932 117.94C136.892 119.284 138.14 119.956 139.676 119.956C140.708 119.956 141.68 119.656 142.592 119.056C143.528 118.456 144.296 117.52 144.896 116.248L145.58 116.5C145.172 117.868 144.404 119.044 143.276 120.028C142.172 121.012 140.732 121.504 138.956 121.504C137.468 121.504 136.112 121.12 134.888 120.352C133.688 119.584 132.74 118.48 132.044 117.04C131.348 115.576 131 113.884 131 111.964C131 110.02 131.348 108.292 132.044 106.78C132.764 105.268 133.76 104.092 135.032 103.252C136.304 102.388 137.756 101.956 139.388 101.956ZM163.88 118.372C164.336 118.972 164.744 119.416 165.104 119.704C165.464 119.992 165.896 120.172 166.4 120.244V121C164.96 120.904 163.988 120.856 163.484 120.856C162.836 120.856 161.504 120.904 159.488 121V120.244C159.824 120.244 160.088 120.184 160.28 120.064C160.496 119.92 160.604 119.752 160.604 119.56C160.604 119.368 160.532 119.188 160.388 119.02L156.248 112.972C155.84 112.372 155.444 111.976 155.06 111.784C154.7 111.568 154.196 111.436 153.548 111.388V117.652C153.548 118.636 153.716 119.32 154.052 119.704C154.412 120.064 155.036 120.244 155.924 120.244V121C153.908 120.904 152.576 120.856 151.928 120.856C151.232 120.856 149.78 120.904 147.572 121V120.244C148.58 120.244 149.288 120.064 149.696 119.704C150.104 119.32 150.308 118.636 150.308 117.652V97.096C150.308 95.992 150.104 95.188 149.696 94.684C149.288 94.18 148.58 93.928 147.572 93.928V93.172C148.34 93.244 149.084 93.28 149.804 93.28C151.316 93.28 152.564 93.112 153.548 92.776V110.632C154.244 110.536 154.82 110.38 155.276 110.164C155.756 109.924 156.212 109.588 156.644 109.156L159.308 106.384C160.076 105.592 160.46 104.932 160.46 104.404C160.46 103.996 160.208 103.696 159.704 103.504C159.224 103.288 158.588 103.18 157.796 103.18V102.46C159.476 102.556 160.832 102.604 161.864 102.604C162.992 102.604 164.036 102.556 164.996 102.46V103.18C163.82 103.276 162.74 103.84 161.756 104.872L157.364 109.48L163.88 118.372ZM165.709 127.228C167.173 127.156 168.277 126.52 169.021 125.32C169.789 124.12 170.173 122.452 170.173 120.316V106.384C170.173 105.28 169.969 104.476 169.561 103.972C169.153 103.468 168.445 103.216 167.437 103.216V102.46C168.181 102.532 168.925 102.568 169.669 102.568C171.181 102.568 172.429 102.4 173.413 102.064V116.86C173.413 120.844 172.549 123.748 170.821 125.572C170.173 126.244 169.405 126.772 168.517 127.156C167.653 127.564 166.717 127.768 165.709 127.768V127.228ZM171.469 93.46C172.093 93.46 172.633 93.688 173.089 94.144C173.545 94.6 173.773 95.14 173.773 95.764C173.773 96.388 173.545 96.928 173.089 97.384C172.633 97.84 172.093 98.068 171.469 98.068C170.845 98.068 170.305 97.84 169.849 97.384C169.393 96.928 169.165 96.388 169.165 95.764C169.165 95.14 169.393 94.6 169.849 94.144C170.305 93.688 170.845 93.46 171.469 93.46ZM182.11 121.252C180.598 121.252 179.47 120.88 178.726 120.136C178.006 119.368 177.646 118.312 177.646 116.968C177.646 115.888 177.934 115 178.51 114.304C179.11 113.608 179.806 113.056 180.598 112.648C181.414 112.24 182.482 111.808 183.802 111.352C185.146 110.896 186.142 110.476 186.79 110.092C187.438 109.708 187.762 109.192 187.762 108.544V106.312C187.762 104.92 187.462 103.972 186.862 103.468C186.286 102.94 185.47 102.676 184.414 102.676C182.734 102.676 181.546 103.108 180.85 103.972C181.33 104.092 181.726 104.344 182.038 104.728C182.374 105.112 182.542 105.592 182.542 106.168C182.542 106.768 182.35 107.248 181.966 107.608C181.582 107.944 181.09 108.112 180.49 108.112C179.818 108.112 179.314 107.908 178.978 107.5C178.642 107.068 178.474 106.552 178.474 105.952C178.474 105.376 178.606 104.896 178.87 104.512C179.158 104.128 179.578 103.744 180.13 103.36C180.706 102.952 181.438 102.616 182.326 102.352C183.214 102.088 184.186 101.956 185.242 101.956C187.114 101.956 188.53 102.4 189.49 103.288C190.09 103.84 190.486 104.512 190.678 105.304C190.894 106.072 191.002 107.092 191.002 108.364V118.372C191.002 118.972 191.086 119.404 191.254 119.668C191.422 119.932 191.71 120.064 192.118 120.064C192.406 120.064 192.67 120.004 192.91 119.884C193.174 119.74 193.45 119.548 193.738 119.308L194.134 119.92C193.51 120.4 192.97 120.748 192.514 120.964C192.082 121.156 191.53 121.252 190.858 121.252C189.706 121.252 188.902 120.964 188.446 120.388C187.99 119.812 187.762 119.032 187.762 118.048C187.042 119.248 186.214 120.088 185.278 120.568C184.342 121.024 183.286 121.252 182.11 121.252ZM183.694 119.812C185.278 119.812 186.634 118.9 187.762 117.076V110.02C187.546 110.356 187.246 110.632 186.862 110.848C186.478 111.064 185.89 111.352 185.098 111.712C184.186 112.096 183.442 112.468 182.866 112.828C182.314 113.164 181.834 113.632 181.426 114.232C181.018 114.832 180.814 115.6 180.814 116.536C180.814 117.616 181.078 118.432 181.606 118.984C182.134 119.536 182.83 119.812 183.694 119.812ZM204.216 101.956C205.824 101.956 207.216 102.34 208.392 103.108C209.52 103.852 210.084 104.776 210.084 105.88C210.084 106.504 209.904 106.996 209.544 107.356C209.184 107.716 208.728 107.896 208.176 107.896C207.624 107.896 207.156 107.74 206.772 107.428C206.388 107.092 206.196 106.648 206.196 106.096C206.196 105.592 206.34 105.172 206.628 104.836C206.916 104.476 207.276 104.236 207.708 104.116C207.468 103.684 207.036 103.324 206.412 103.036C205.812 102.748 205.164 102.604 204.468 102.604C203.58 102.604 202.752 102.892 201.984 103.468C201.216 104.02 200.58 104.956 200.076 106.276C199.572 107.572 199.32 109.288 199.32 111.424C199.32 114.4 199.8 116.572 200.76 117.94C201.72 119.284 202.968 119.956 204.504 119.956C205.536 119.956 206.508 119.656 207.42 119.056C208.356 118.456 209.124 117.52 209.724 116.248L210.408 116.5C210 117.868 209.232 119.044 208.104 120.028C207 121.012 205.56 121.504 203.784 121.504C202.296 121.504 200.94 121.12 199.716 120.352C198.516 119.584 197.568 118.48 196.872 117.04C196.176 115.576 195.828 113.884 195.828 111.964C195.828 110.02 196.176 108.292 196.872 106.78C197.592 105.268 198.588 104.092 199.86 103.252C201.132 102.388 202.584 101.956 204.216 101.956ZM228.708 118.372C229.164 118.972 229.572 119.416 229.932 119.704C230.292 119.992 230.724 120.172 231.228 120.244V121C229.788 120.904 228.816 120.856 228.312 120.856C227.664 120.856 226.332 120.904 224.316 121V120.244C224.652 120.244 224.916 120.184 225.108 120.064C225.324 119.92 225.432 119.752 225.432 119.56C225.432 119.368 225.36 119.188 225.216 119.02L221.076 112.972C220.668 112.372 220.272 111.976 219.888 111.784C219.528 111.568 219.024 111.436 218.376 111.388V117.652C218.376 118.636 218.544 119.32 218.88 119.704C219.24 120.064 219.864 120.244 220.752 120.244V121C218.736 120.904 217.404 120.856 216.756 120.856C216.06 120.856 214.608 120.904 212.4 121V120.244C213.408 120.244 214.116 120.064 214.524 119.704C214.932 119.32 215.136 118.636 215.136 117.652V97.096C215.136 95.992 214.932 95.188 214.524 94.684C214.116 94.18 213.408 93.928 212.4 93.928V93.172C213.168 93.244 213.912 93.28 214.632 93.28C216.144 93.28 217.392 93.112 218.376 92.776V110.632C219.072 110.536 219.648 110.38 220.104 110.164C220.584 109.924 221.04 109.588 221.472 109.156L224.136 106.384C224.904 105.592 225.288 104.932 225.288 104.404C225.288 103.996 225.036 103.696 224.532 103.504C224.052 103.288 223.416 103.18 222.624 103.18V102.46C224.304 102.556 225.66 102.604 226.692 102.604C227.82 102.604 228.864 102.556 229.824 102.46V103.18C228.648 103.276 227.568 103.84 226.584 104.872L222.192 109.48L228.708 118.372Z" fill="white" fill-opacity="0.25"/>
    <path fill-rule="evenodd" clip-rule="evenodd" d="M170.099 163.727C167.555 164.617 165.127 165.628 162.808 166.762C160.481 167.895 158.381 169.155 156.505 170.537C154.629 169.155 152.529 167.895 150.202 166.762C147.876 165.628 145.448 164.617 142.911 163.727C147.149 160.659 151.671 158.094 156.505 156.021C161.332 158.094 165.861 160.659 170.099 163.727ZM166.675 195.378C166.69 196.589 166.53 197.927 166.181 199.397C165.832 200.873 165.301 202.211 164.574 203.427C163.862 204.637 162.822 205.682 161.477 206.55C160.133 207.418 158.468 207.854 156.505 207.854C154.535 207.854 152.878 207.418 151.533 206.55C150.188 205.682 149.155 204.637 148.429 203.427C147.709 202.211 147.171 200.873 146.829 199.397C146.48 197.927 146.313 196.589 146.328 195.378C146.444 186.91 149.912 179.862 156.505 174.163C163.099 180.039 166.566 187.081 166.675 195.378ZM312.757 162.223C312.154 159.321 310.424 156.994 307.581 155.231C304.746 153.468 301.737 152.766 298.523 153.119C297.6 153.224 296.524 153.385 295.274 153.606C294.896 153.678 294.583 153.75 294.329 153.827C292.642 154.153 291.399 155.303 291.399 156.685C291.399 158.315 293.137 159.631 295.281 159.631C297.426 159.631 299.156 158.315 299.156 156.685C299.156 155.712 298.538 154.855 297.586 154.313C301.577 154.092 304.514 154.783 306.404 156.419C308.555 158.266 309.864 160.294 310.315 162.516C311.02 165.927 309.871 169.083 306.832 171.963C303.787 174.843 298.211 176.739 290.149 177.557C280.182 178.563 271.204 177.524 263.382 174.511C255.56 171.493 247.665 168.033 239.727 164.119C231.796 160.206 223.334 156.652 214.342 153.423C205.342 150.195 194.67 148.775 182.138 149.029C177.819 149.112 173.501 149.654 169.176 150.648C164.85 151.638 160.634 152.909 156.505 154.468C152.376 152.915 148.152 151.638 143.827 150.648C139.509 149.654 135.191 149.112 130.865 149.029C122.433 148.858 114.879 149.488 108.148 150.964C101.402 152.439 95.2153 154.313 89.5741 156.618C83.9256 158.923 78.4953 161.422 73.2757 164.119C68.0562 166.822 62.8657 169.277 57.7116 171.493C52.5502 173.71 47.1125 175.446 41.4059 176.689C35.7066 177.933 29.5056 178.226 22.8612 177.557C14.792 176.739 9.22352 174.849 6.17757 171.963C3.13889 169.083 1.9903 165.927 2.69544 162.516C3.14616 160.294 4.45469 158.266 6.59921 156.419C8.46022 154.816 11.3172 154.12 15.1846 154.302C14.2177 154.838 13.5925 155.706 13.5925 156.685C13.5925 158.315 15.33 159.631 17.4672 159.631C19.6117 159.631 21.3492 158.315 21.3492 156.685C21.3492 155.546 20.4986 154.557 19.2555 154.065C18.9793 153.893 18.4777 153.738 17.7362 153.606C16.4858 153.385 15.4027 153.224 14.4867 153.119C11.2663 152.766 8.25667 153.468 5.42153 155.231C2.5864 156.994 0.856243 159.321 0.245599 162.223C-0.575862 166.143 0.659966 169.713 4.00397 172.897C7.34797 176.076 13.5562 178.182 22.5923 179.099C33.2858 180.177 42.9979 179.199 51.5324 176.225C60.0742 173.257 68.3833 169.807 76.4307 165.877C84.4781 161.953 92.7073 158.36 101.133 155.093C109.558 151.82 119.285 150.344 130.465 150.577C139.145 150.754 147.207 152.296 154.782 155.242C149.723 157.486 145.186 160.128 141.174 163.191C138.171 162.29 135.002 161.593 131.658 161.096C128.314 160.604 124.919 160.305 121.444 160.211C115.425 160.051 110.132 160.515 105.531 161.632C100.915 162.749 97.0763 164.258 93.9867 166.187C90.8972 168.116 88.4691 170.327 86.6953 172.831C84.9288 175.341 83.9256 177.795 83.693 180.205C83.4168 183.135 84.3109 185.699 86.3973 187.888C88.4909 190.072 89.7995 191.177 90.2792 191.199C90.759 191.222 91.0062 191.144 91.0207 190.978C91.0498 190.63 90.1193 189.502 88.2365 187.59C86.3537 185.677 85.5613 183.251 85.8303 180.321C86.3101 175.147 89.8576 170.847 96.3493 167.337C102.848 163.832 111.361 162.279 122.033 162.566C128.757 162.743 134.42 163.533 139.044 164.976C134.529 168.718 130.698 172.964 127.55 177.734C124.417 182.504 122.076 188.065 120.572 194.422C120.797 194.77 121.16 194.781 121.655 194.45C123.886 187.938 126.685 182.344 130.044 177.662C133.41 172.975 137.095 168.928 141.13 165.523C143.674 166.413 146.044 167.43 148.261 168.564C150.471 169.702 152.514 170.963 154.39 172.35C147.331 178.033 143.594 185.76 143.42 195.61C143.398 197.169 143.551 198.85 143.885 200.674C144.219 202.487 144.866 204.261 145.826 205.997C146.786 207.733 148.123 209.17 149.839 210.303C151.562 211.431 153.779 212 156.505 212C159.224 212 161.448 211.431 163.164 210.303C164.887 209.17 166.224 207.733 167.184 205.997C168.136 204.261 168.783 202.487 169.118 200.674C169.459 198.85 169.612 197.169 169.59 195.61C169.416 185.76 165.679 178.033 158.62 172.35C160.496 170.963 162.539 169.702 164.749 168.564C166.951 167.43 169.336 166.413 171.88 165.523C175.915 168.928 179.608 172.969 182.966 177.662C186.318 182.344 189.124 187.938 191.348 194.45C191.61 194.787 191.973 194.781 192.439 194.422C190.934 188.065 188.593 182.504 185.452 177.734C182.312 172.964 178.474 168.718 173.959 164.976C178.59 163.533 184.246 162.743 190.977 162.566C201.649 162.279 210.162 163.832 216.653 167.337C223.145 170.847 226.7 175.147 227.18 180.321C227.449 183.251 226.649 185.677 224.774 187.59C222.891 189.502 221.953 190.63 221.989 190.978C222.004 191.144 222.251 191.222 222.731 191.199C223.211 191.177 224.512 190.072 226.606 187.888C228.699 185.699 229.593 183.135 229.317 180.205C229.084 177.795 228.081 175.341 226.307 172.831C224.541 170.327 222.106 168.116 219.016 166.187C215.941 164.258 212.081 162.749 207.479 161.632C202.87 160.515 197.578 160.051 191.559 160.211C188.091 160.305 184.689 160.604 181.345 161.096C178.001 161.593 174.832 162.29 171.829 163.191C167.824 160.128 163.288 157.486 158.228 155.242C165.803 152.296 173.865 150.748 182.537 150.577C193.725 150.344 203.445 151.82 211.877 155.093C220.303 158.36 228.532 161.953 236.579 165.877C244.627 169.807 252.936 173.257 261.47 176.225C270.005 179.199 279.717 180.177 290.418 179.099C299.447 178.182 305.655 176.076 308.999 172.897C312.343 169.713 313.571 166.143 312.757 162.223Z" fill="white" fill-opacity="0.25"/>
    <path fill-rule="evenodd" clip-rule="evenodd" d="M142.901 48.2731C145.445 47.3831 147.873 46.3716 150.192 45.2384C152.519 44.1052 154.619 42.8449 156.495 41.463C158.371 42.8449 160.471 44.1052 162.798 45.2384C165.124 46.3715 167.552 47.3831 170.089 48.2731C165.851 51.3409 161.329 53.9058 156.495 55.9786C151.668 53.9058 147.139 51.3409 142.901 48.2731ZM146.325 16.6217C146.31 15.4111 146.47 14.0734 146.819 12.6031C147.168 11.1272 147.699 9.78948 148.426 8.57339C149.138 7.36283 150.178 6.31811 151.523 5.45027C152.867 4.58242 154.532 4.14574 156.495 4.14574C158.465 4.14574 160.122 4.58242 161.467 5.45027C162.812 6.31811 163.845 7.36283 164.571 8.57339C165.291 9.78948 165.829 11.1272 166.171 12.6031C166.52 14.0734 166.687 15.4111 166.672 16.6217C166.556 25.09 163.088 32.1378 156.495 37.8368C149.901 31.9609 146.434 24.9187 146.325 16.6217ZM0.242787 49.7766C0.846162 52.6786 2.57633 55.0058 5.41873 56.7691C8.25387 58.5324 11.2635 59.2344 14.4766 58.8807C15.3999 58.7756 16.4758 58.6153 17.7261 58.3942C18.1042 58.3224 18.4167 58.2505 18.6712 58.1731C20.3577 57.847 21.6008 56.6972 21.6008 55.3153C21.6008 53.6847 19.8634 52.3691 17.7189 52.3691C15.5743 52.3691 13.8442 53.6847 13.8442 55.3153C13.8442 56.2882 14.4621 57.145 15.4144 57.6867C11.4234 57.9078 8.48649 57.2168 6.5964 55.5806C4.44461 53.7344 3.13611 51.7058 2.6854 49.4836C1.98025 46.0731 3.12884 42.9168 6.16752 40.0369C9.21347 37.1569 14.7892 35.261 22.8512 34.4429C32.8178 33.4368 41.7957 34.476 49.6177 37.4886C57.4398 40.5067 65.3345 43.967 73.2729 47.8806C81.204 51.7942 89.6658 55.3485 98.6583 58.5766C107.658 61.8048 118.33 63.2254 130.862 62.9711C135.181 62.8882 139.499 62.3465 143.824 61.3515C148.15 60.3621 152.366 59.0907 156.495 57.5319C160.624 59.0852 164.848 60.3621 169.173 61.3515C173.491 62.3465 177.809 62.8882 182.135 62.9711C190.567 63.1425 198.121 62.5123 204.852 61.0364C211.598 59.5605 217.785 57.6867 223.426 55.3816C229.074 53.0766 234.505 50.5781 239.724 47.8806C244.944 45.1776 250.134 42.7233 255.288 40.5067C260.45 38.2901 265.887 36.5544 271.594 35.3107C277.293 34.067 283.494 33.774 290.139 34.4428C298.208 35.2609 303.776 37.1514 306.822 40.0368C309.861 42.9167 311.01 46.073 310.305 49.4836C309.854 51.7057 308.545 53.7344 306.401 55.5806C304.54 57.1836 301.683 57.8801 297.815 57.6977C298.782 57.1615 299.407 56.2937 299.407 55.3153C299.407 53.6846 297.67 52.369 295.533 52.369C293.388 52.369 291.651 53.6846 291.651 55.3153C291.651 56.454 292.501 57.4434 293.744 57.9354C294.021 58.1068 294.522 58.2615 295.264 58.3942C296.514 58.6153 297.597 58.7756 298.513 58.8806C301.734 59.2344 304.743 58.5324 307.578 56.7691C310.414 55.0057 312.144 52.6786 312.754 49.7766C313.576 45.8575 312.34 42.2866 308.996 39.1027C305.652 35.9243 299.444 33.8182 290.408 32.9006C279.714 31.8227 270.002 32.8011 261.468 35.775C252.926 38.7434 244.617 42.1926 236.569 46.1228C228.522 50.0474 220.293 53.6404 211.867 56.9073C203.442 60.1796 193.715 61.6555 182.535 61.4234C173.855 61.2465 165.793 59.7043 158.218 56.758C163.277 54.5138 167.814 51.8716 171.826 48.8092C174.829 49.7103 177.998 50.4067 181.342 50.9042C184.686 51.3962 188.081 51.6947 191.556 51.7887C197.575 51.949 202.868 51.4846 207.469 50.368C212.085 49.2515 215.924 47.7424 219.013 45.8133C222.103 43.8841 224.531 41.673 226.305 39.169C228.071 36.6594 229.074 34.2052 229.307 31.7951C229.583 28.8654 228.689 26.3006 226.603 24.1116C224.509 21.9282 223.201 20.8227 222.721 20.8006C222.241 20.7785 221.994 20.8559 221.979 21.0217C221.95 21.3699 222.881 22.4976 224.764 24.4101C226.646 26.3227 227.439 28.7494 227.17 31.679C226.69 36.8529 223.142 41.1534 216.651 44.6635C210.152 48.168 201.639 49.7213 190.967 49.4339C184.243 49.257 178.58 48.4665 173.956 47.0238C178.471 43.2816 182.302 39.0363 185.45 34.266C188.583 29.4956 190.924 23.9348 192.428 17.578C192.203 17.2297 191.84 17.2187 191.345 17.5503C189.114 24.0619 186.315 29.6559 182.956 34.3378C179.59 39.0253 175.905 43.0715 171.87 46.4766C169.326 45.5866 166.956 44.5695 164.739 43.4364C162.529 42.2977 160.486 41.0374 158.61 39.6499C165.669 33.9675 169.406 26.2398 169.58 16.3895C169.602 14.8307 169.449 13.1503 169.115 11.3262C168.781 9.51309 168.134 7.73871 167.174 6.00303C166.214 4.26734 164.877 2.83015 163.161 1.69698C161.438 0.569338 159.221 -1.14528e-05 156.495 -1.12145e-05C153.776 -1.09768e-05 151.552 0.569339 149.836 1.69698C148.113 2.83015 146.776 4.26734 145.816 6.00303C144.864 7.73871 144.217 9.51309 143.882 11.3262C143.541 13.1503 143.388 14.8307 143.41 16.3895C143.584 26.2398 147.321 33.9675 154.38 39.6499C152.504 41.0374 150.461 42.2977 148.251 43.4364C146.049 44.5695 143.664 45.5866 141.12 46.4766C137.085 43.0715 133.392 39.0308 130.034 34.3378C126.682 29.6559 123.876 24.0619 121.652 17.5503C121.39 17.2131 121.027 17.2187 120.561 17.578C122.066 23.9348 124.407 29.4956 127.548 34.266C130.688 39.0363 134.526 43.2816 139.041 47.0238C134.41 48.4665 128.754 49.257 122.023 49.4339C111.351 49.7213 102.838 48.168 96.3465 44.6635C89.8548 41.1534 86.3 36.8529 85.8202 31.679C85.5512 28.7494 86.3509 26.3227 88.2264 24.4102C90.1092 22.4976 91.047 21.3699 91.0107 21.0217C90.9961 20.8559 90.749 20.7785 90.2692 20.8006C89.7894 20.8227 88.4881 21.9282 86.3945 24.1117C84.3009 26.3006 83.4067 28.8654 83.6829 31.7951C83.9156 34.2052 84.9188 36.6595 86.6925 39.169C88.459 41.673 90.8944 43.8841 93.9839 45.8133C97.059 47.7424 100.919 49.2515 105.521 50.3681C110.13 51.4846 115.422 51.949 121.441 51.7887C124.909 51.6947 128.311 51.3962 131.655 50.9042C134.999 50.4067 138.168 49.7103 141.171 48.8092C145.176 51.8716 149.712 54.5138 154.772 56.758C147.197 59.7043 139.135 61.252 130.463 61.4234C119.275 61.6555 109.555 60.1797 101.123 56.9073C92.6972 53.6404 84.468 50.0474 76.4206 46.1228C68.3732 42.1926 60.0641 38.7434 51.5296 35.775C42.9951 32.8011 33.283 31.8228 22.5822 32.9006C13.5534 33.8182 7.34518 35.9243 4.00118 39.1027C0.657173 42.2866 -0.571405 45.8575 0.242787 49.7766Z" fill="white" fill-opacity="0.25"/>
  </g>
  <defs>
    <filter id="filter0_i" x="-3.05176e-05" y="-2.67029e-05" width="313" height="212.5" filterUnits="userSpaceOnUse" color-interpolation-filters="sRGB">
      <feFlood flood-opacity="0" result="BackgroundImageFix"/>
      <feBlend mode="normal" in="SourceGraphic" in2="BackgroundImageFix" result="shape"/>
      <feColorMatrix in="SourceAlpha" type="matrix" values="0 0 0 0 0 0 0 0 0 0 0 0 0 0 0 0 0 0 127 0" result="hardAlpha"/>
      <feOffset dy="0.5"/>
      <feGaussianBlur stdDeviation="0.25"/>
      <feComposite in2="hardAlpha" operator="arithmetic" k2="-1" k3="1"/>
      <feColorMatrix type="matrix" values="0 0 0 0 0 0 0 0 0 0 0 0 0 0 0 0 0 0 0.75 0"/>
      <feBlend mode="normal" in2="shape" result="effect1_innerShadow"/>
    </filter>
  </defs>
</svg>
